<svg width="62" height="62" viewBox="0 0 62 62" fill="none" xmlns="http://www.w3.org/2000/svg">
<circle opacity="0.75" cx="31" cy="31" r="30.4595" fill="url(#paint0_radial)"/>
<path d="M23.7749 17.6461L23.7749 17.6462L23.783 17.6417L32.0778 13.0198C32.1524 12.9806 32.2372 12.9595 32.3243 12.9595C32.4114 12.9595 32.4962 12.9806 32.5709 13.0198L40.8656 17.6417L40.8656 17.6418L40.8738 17.6461C40.9445 17.6838 41.0009 17.738 41.0389 17.801C41.0767 17.8638 41.0954 17.9337 41.0946 18.0036L41.0945 18.0036V18.0098V27.2538C41.0928 27.3265 41.072 27.3988 41.0327 27.4639L41.4609 27.7222L41.0327 27.4639C40.9931 27.5297 40.9354 27.5866 40.8635 27.6278C40.863 27.6281 40.8625 27.6284 40.862 27.6287L32.5709 32.2485C32.4962 32.2877 32.4114 32.3088 32.3243 32.3088C32.2373 32.3088 32.1524 32.2877 32.0778 32.2485L23.7866 27.6287C23.7862 27.6284 23.7857 27.6281 23.7852 27.6278C23.7133 27.5867 23.6556 27.5297 23.6159 27.4639C23.5766 27.3988 23.5559 27.3265 23.5541 27.2537V18.0098H23.5542L23.5541 18.0036C23.5532 17.9337 23.5719 17.8638 23.6098 17.801C23.6478 17.738 23.7042 17.6838 23.7749 17.6461Z" stroke="#4F94FF" stroke-miterlimit="10"/>
<path opacity="0.75" d="M31.8969 16.1016L26.4283 19.1093C26.3302 19.1609 26.2487 19.2368 26.1924 19.329C26.136 19.4211 26.107 19.5261 26.1083 19.6328V25.6481C26.1101 25.7541 26.1404 25.858 26.1964 25.9496C26.2524 26.0413 26.3323 26.1177 26.4283 26.1716L31.8969 29.1792C31.9948 29.2309 32.1049 29.258 32.2168 29.258C32.3288 29.258 32.4389 29.2309 32.5367 29.1792L38.0054 26.1716C38.1014 26.1177 38.1812 26.0413 38.2373 25.9496C38.2933 25.858 38.3236 25.7541 38.3253 25.6481V19.6328C38.3267 19.5261 38.2976 19.4211 38.2413 19.329C38.185 19.2368 38.1034 19.1609 38.0054 19.1093L32.5367 16.1016C32.4389 16.0499 32.3288 16.0228 32.2168 16.0228C32.1049 16.0228 31.9948 16.0499 31.8969 16.1016Z" fill="#4F94FF"/>
<path d="M32.0983 31.9046V22.5633L23.9585 17.8861" stroke="#4F94FF" stroke-miterlimit="10" stroke-linecap="round" stroke-linejoin="round"/>
<path d="M40.2379 17.8861L32.0981 22.5633V31.9046" stroke="#4F94FF" stroke-miterlimit="10" stroke-linecap="round" stroke-linejoin="round"/>
<g opacity="0.35">
<path d="M48.2162 45.0033V39.0577C48.2175 38.9523 48.1891 38.8485 48.1342 38.7574C48.0792 38.6663 47.9997 38.5913 47.9041 38.5403L42.5689 35.5675M48.2162 45.0033L47.7162 44.9953C47.7162 44.996 47.7162 44.9968 47.7162 44.9975M48.2162 45.0033C48.2145 45.1081 48.1849 45.2107 48.1302 45.3014C48.0756 45.392 47.9977 45.4675 47.9041 45.5207M48.2162 45.0033H47.7162V44.9975M47.7162 44.9975V39.0577V39.0515L47.7162 39.0515C47.7164 39.0402 47.7134 39.0278 47.706 39.0157C47.6986 39.0033 47.6864 38.9909 47.6688 38.9815L47.6606 38.9771L47.6607 38.9771L42.3306 36.0071M47.7162 44.9975C47.7156 45.0125 47.7112 45.0281 47.7021 45.0431C47.6927 45.0587 47.6782 45.0737 47.6582 45.0853M42.3306 36.0071C42.3314 36.0075 42.3323 36.008 42.3331 36.0084L42.5689 35.5675M42.3306 36.0071L42.3255 36.0043L42.5689 35.5675M42.3306 36.0071C42.3088 35.996 42.2834 35.9896 42.2568 35.9896C42.2301 35.9896 42.2047 35.996 42.1829 36.0071M42.5689 35.5675C42.4734 35.5164 42.366 35.4896 42.2568 35.4896C42.1476 35.4896 42.0402 35.5164 41.9446 35.5675M41.9446 35.5675L42.188 36.0043L42.1829 36.0071M41.9446 35.5675L36.6095 38.5403C36.5138 38.5913 36.4343 38.6663 36.3793 38.7574C36.3244 38.8485 36.296 38.9523 36.2973 39.0577V45.0033M41.9446 35.5675L42.1804 36.0084C42.1812 36.008 42.1821 36.0075 42.1829 36.0071M42.1829 36.0071L36.8528 38.9771L36.8447 38.9816L36.8447 38.9815C36.8271 38.9909 36.8149 39.0034 36.8075 39.0157L36.3851 38.7609L36.8075 39.0157C36.8001 39.0278 36.7972 39.0402 36.7973 39.0515L36.7974 39.0577H36.7973V44.9975M36.7973 44.9975C36.7973 44.9968 36.7973 44.996 36.7973 44.9953L36.2973 45.0033M36.7973 44.9975V45.0033H36.2973M36.7973 44.9975C36.798 45.0125 36.8024 45.0281 36.8114 45.0431L36.3833 45.3014M36.2973 45.0033C36.299 45.1081 36.3286 45.2107 36.3833 45.3014M36.3833 45.3014L36.8114 45.0431C36.8208 45.0587 36.8354 45.0737 36.8553 45.0853M36.3833 45.3014C36.4379 45.392 36.5158 45.4675 36.6095 45.5207M36.8553 45.0853L42.1829 48.0539M36.8553 45.0853C36.8557 45.0855 36.8561 45.0858 36.8565 45.086L36.6095 45.5207M36.8553 45.0853L36.8528 45.0839L36.6095 45.5207M36.6095 45.5207L41.9446 48.4935M41.9446 48.4935C42.0402 48.5446 42.1476 48.5714 42.2568 48.5714C42.366 48.5714 42.4734 48.5446 42.5689 48.4935M41.9446 48.4935L42.188 48.0567L42.1829 48.0539M41.9446 48.4935L42.1804 48.0526C42.1812 48.053 42.1821 48.0535 42.1829 48.0539M42.5689 48.4935L47.9041 45.5207M42.5689 48.4935L42.3331 48.0526C42.3323 48.053 42.3314 48.0535 42.3306 48.0539M42.5689 48.4935L42.3255 48.0567L42.3306 48.0539M47.9041 45.5207L47.657 45.086C47.6574 45.0858 47.6578 45.0855 47.6582 45.0853M47.9041 45.5207L47.6607 45.0839L47.6582 45.0853M47.6582 45.0853L42.3306 48.0539M42.3306 48.0539C42.3088 48.065 42.2834 48.0714 42.2568 48.0714C42.2301 48.0714 42.2047 48.065 42.1829 48.0539" stroke="#4F94FF" stroke-miterlimit="10"/>
<path opacity="0.75" d="M42.0696 38.6428L38.8685 40.2679C38.8111 40.2958 38.7634 40.3368 38.7304 40.3866C38.6974 40.4364 38.6804 40.4931 38.6812 40.5508V43.801C38.6822 43.8583 38.7 43.9144 38.7328 43.964C38.7656 44.0135 38.8123 44.0548 38.8685 44.0839L42.0696 45.709C42.1269 45.7369 42.1914 45.7516 42.2569 45.7516C42.3224 45.7516 42.3868 45.7369 42.4441 45.709L45.6453 44.0839C45.7014 44.0548 45.7482 44.0135 45.781 43.964C45.8138 43.9144 45.8315 43.8583 45.8325 43.801V40.5508C45.8333 40.4931 45.8163 40.4364 45.7833 40.3866C45.7504 40.3368 45.7026 40.2958 45.6453 40.2679L42.4441 38.6428C42.3868 38.6149 42.3224 38.6002 42.2569 38.6002C42.1914 38.6002 42.1269 38.6149 42.0696 38.6428Z" fill="#4F94FF"/>
<path d="M42.1114 47.9896V41.9846L36.8787 38.9778" stroke="#4F94FF" stroke-miterlimit="10" stroke-linecap="round" stroke-linejoin="round"/>
<path d="M47.3442 38.9778L42.1115 41.9846V47.9896" stroke="#4F94FF" stroke-miterlimit="10" stroke-linecap="round" stroke-linejoin="round"/>
</g>
<g opacity="0.65">
<path d="M14.4098 35.2602L14.4098 35.2602L14.4179 35.2557L21.0921 31.5368C21.1378 31.513 21.1901 31.5 21.2441 31.5C21.2981 31.5 21.3504 31.513 21.3962 31.5368L28.0704 35.2557L28.0703 35.2558L28.0785 35.2602C28.1202 35.2824 28.1524 35.3138 28.1737 35.3491C28.1949 35.3842 28.205 35.4226 28.2045 35.4605L28.2045 35.4605V35.4667V42.9046C28.2033 42.9457 28.1915 42.9869 28.1687 43.0246C28.1456 43.0629 28.1116 43.0969 28.0681 43.1219L21.3962 46.8396C21.3504 46.8634 21.2981 46.8764 21.2441 46.8764C21.1901 46.8764 21.1378 46.8634 21.0921 46.8396L14.4202 43.1219C14.3767 43.0969 14.3426 43.0629 14.3195 43.0246C14.2968 42.9869 14.285 42.9457 14.2838 42.9046V35.4667H14.2839L14.2838 35.4605C14.2833 35.4226 14.2934 35.3842 14.3146 35.3491C14.3359 35.3138 14.3681 35.2824 14.4098 35.2602Z" stroke="#4F94FF" stroke-miterlimit="10"/>
<path opacity="0.75" d="M20.9001 33.9309L16.4991 36.3514C16.4202 36.3929 16.3546 36.454 16.3093 36.5282C16.264 36.6024 16.2406 36.6869 16.2417 36.7727V41.6136C16.2431 41.6989 16.2675 41.7825 16.3126 41.8563C16.3576 41.93 16.4219 41.9915 16.4991 42.0349L20.9001 44.4553C20.9789 44.4969 21.0675 44.5187 21.1576 44.5187C21.2476 44.5187 21.3362 44.4969 21.415 44.4553L25.816 42.0349C25.8932 41.9915 25.9575 41.93 26.0026 41.8563C26.0477 41.7825 26.0721 41.6989 26.0734 41.6136V36.7727C26.0745 36.6869 26.0512 36.6024 26.0058 36.5282C25.9605 36.454 25.8949 36.3929 25.816 36.3514L21.415 33.9309C21.3362 33.8894 21.2476 33.8676 21.1576 33.8676C21.0675 33.8676 20.9789 33.8894 20.9001 33.9309Z" fill="#4F94FF"/>
<path d="M21.0623 46.6486V39.1311L14.5117 35.3671" stroke="#4F94FF" stroke-miterlimit="10" stroke-linecap="round" stroke-linejoin="round"/>
<path d="M27.6126 35.3671L21.062 39.1311V46.6486" stroke="#4F94FF" stroke-miterlimit="10" stroke-linecap="round" stroke-linejoin="round"/>
</g>
<defs>
<radialGradient id="paint0_radial" cx="0" cy="0" r="1" gradientUnits="userSpaceOnUse" gradientTransform="translate(31 31) rotate(90) scale(30.4595)">
<stop offset="0.427083" stop-color="#3371D0" stop-opacity="0.07"/>
<stop offset="1" stop-color="#4F94FF"/>
</radialGradient>
</defs>
</svg>
